HIERARCHY
ROOT hip
{
  OFFSET 0 0 0
  CHANNELS 6 Xposition Yposition Zposition Zrotation Yrotation Xrotation
  JOINT abdomen
  {
    OFFSET 0 20.6881 -0.73152
    CHANNELS 3 Zrotation Xrotation Yrotation
    JOINT chest
    {
      OFFSET 0 11.7043 -0.48768
      CHANNELS 3 Zrotation Xrotation Yrotation
      JOINT neck
      {
        OFFSET 0 22.1894 -2.19456
        CHANNELS 3 Zrotation Xrotation Yrotation
        JOINT head
        {
          OFFSET -0.24384 7.07133 1.2192
          CHANNELS 3 Zrotation Xrotation Yrotation
          JOINT leftEye
          {
            OFFSET 4.14528 8.04674 8.04672
            CHANNELS 3 Zrotation Xrotation Yrotation
            End Site
            {
              OFFSET 1 0 0
            }
          }
          JOINT rightEye
          {
            OFFSET -3.6576 8.04674 8.04672
            CHANNELS 3 Zrotation Xrotation Yrotation
            End Site
            {
              OFFSET 1 0 0
            }
          }
        }
      }
      JOINT rCollar
      {
        OFFSET -2.68224 19.2634 -4.8768
        CHANNELS 3 Zrotation Xrotation Yrotation
        JOINT rShldr
        {
          OFFSET -8.77824 -1.95073 1.46304
          CHANNELS 3 Zrotation Xrotation Yrotation
          JOINT rForeArm
          {
            OFFSET -28.1742 -1.7115 0.48768
            CHANNELS 3 Zrotation Xrotation Yrotation
            JOINT rHand
            {
              OFFSET -22.5879 0.773209 7.07136
              CHANNELS 3 Zrotation Xrotation Yrotation
              JOINT rThumb1
              {
                OFFSET -1.2192 -0.487915 3.41376
                CHANNELS 3 Zrotation Xrotation Yrotation
                JOINT rThumb2
                {
                  OFFSET -3.37035 -0.52449 3.41376
                  CHANNELS 3 Zrotation Xrotation Yrotation
                  End Site
                  {
                    OFFSET -1.78271 -1.18214 1.43049
                  }
                }
              }
              JOINT rIndex1
              {
                OFFSET -7.75947 0.938293 5.60832
                CHANNELS 3 Zrotation Xrotation Yrotation
                JOINT rIndex2
                {
                  OFFSET -2.54057 -0.884171 1.56538
                  CHANNELS 3 Zrotation Xrotation Yrotation
                  End Site
                  {
                    OFFSET -1.62519 -0.234802 1.16502
                  }
                }
              }
              JOINT rMid1
              {
                OFFSET -8.24714 1.18213 3.41376
                CHANNELS 3 Zrotation Xrotation Yrotation
                JOINT rMid2
                {
                  OFFSET -3.10165 -0.590103 1.0647
                  CHANNELS 3 Zrotation Xrotation Yrotation
                  End Site
                  {
                    OFFSET -2.48547 -0.328903 0.83742
                  }
                }
              }
              JOINT rRing1
              {
                OFFSET -8.82822 0.546677 1.51678
                CHANNELS 3 Zrotation Xrotation Yrotation
                JOINT rRing2
                {
                  OFFSET -2.60934 -0.819778 -0.0198488
                  CHANNELS 3 Zrotation Xrotation Yrotation
                  End Site
                  {
                    OFFSET -2.33842 -0.294052 0.168128
                  }
                }
              }
              JOINT rPinky1
              {
                OFFSET -8.27202 -0.0477905 -0.4584
                CHANNELS 3 Zrotation Xrotation Yrotation
                JOINT rPinky2
                {
                  OFFSET -1.82734 -0.647385 -0.700984
                  CHANNELS 3 Zrotation Xrotation Yrotation
                  End Site
                  {
                    OFFSET -1.69225 -0.51767 -0.607171
                  }
                }
              }
            }
          }
        }
      }
      JOINT lCollar
      {
        OFFSET 2.68224 19.2634 -4.8768
        CHANNELS 3 Zrotation Xrotation Yrotation
        JOINT lShldr
        {
          OFFSET 8.77824 -1.95073 1.46304
          CHANNELS 3 Zrotation Xrotation Yrotation
          JOINT lForeArm
          {
            OFFSET 28.1742 -1.7115 0.48768
            CHANNELS 3 Zrotation Xrotation Yrotation
            JOINT lHand
            {
              OFFSET 22.5879 0.773209 7.07136
              CHANNELS 3 Zrotation Xrotation Yrotation
              JOINT lThumb1
              {
                OFFSET 1.2192 -0.487915 3.41376
                CHANNELS 3 Zrotation Xrotation Yrotation
                JOINT lThumb2
                {
                  OFFSET 3.37035 -0.52449 3.41376
                  CHANNELS 3 Zrotation Xrotation Yrotation
                  End Site
                  {
                    OFFSET 1.78271 -1.18214 1.43049
                  }
                }
              }
              JOINT lIndex1
              {
                OFFSET 7.75947 0.938293 5.60832
                CHANNELS 3 Zrotation Xrotation Yrotation
                JOINT lIndex2
                {
                  OFFSET 2.54057 -0.884171 1.56538
                  CHANNELS 3 Zrotation Xrotation Yrotation
                  End Site
                  {
                    OFFSET 1.62519 -0.234802 1.16502
                  }
                }
              }
              JOINT lMid1
              {
                OFFSET 8.24714 1.18213 3.41376
                CHANNELS 3 Zrotation Xrotation Yrotation
                JOINT lMid2
                {
                  OFFSET 3.10165 -0.590103 1.0647
                  CHANNELS 3 Zrotation Xrotation Yrotation
                  End Site
                  {
                    OFFSET 2.48547 -0.328903 0.83742
                  }
                }
              }
              JOINT lRing1
              {
                OFFSET 8.82822 0.546677 1.51678
                CHANNELS 3 Zrotation Xrotation Yrotation
                JOINT lRing2
                {
                  OFFSET 2.60934 -0.819778 -0.0198488
                  CHANNELS 3 Zrotation Xrotation Yrotation
                  End Site
                  {
                    OFFSET 2.33842 -0.294052 0.168128
                  }
                }
              }
              JOINT lPinky1
              {
                OFFSET 8.27202 -0.0477905 -0.4584
                CHANNELS 3 Zrotation Xrotation Yrotation
                JOINT lPinky2
                {
                  OFFSET 1.82734 -0.647385 -0.700984
                  CHANNELS 3 Zrotation Xrotation Yrotation
                  End Site
                  {
                    OFFSET 1.69225 -0.51767 -0.607171
                  }
                }
              }
            }
          }
        }
      }
    }
  }
  JOINT rButtock
  {
    OFFSET -8.77824 4.35084 1.2192
    CHANNELS 3 Zrotation Xrotation Yrotation
    JOINT rThigh
    {
      OFFSET 0 -1.70687 -2.19456
      CHANNELS 3 Zrotation Xrotation Yrotation
      JOINT rShin
      {
        OFFSET 0 -36.8199 0.73152
        CHANNELS 3 Zrotation Xrotation Yrotation
        JOINT rFoot
        {
          OFFSET 0.73152 -45.1104 -5.12064
          CHANNELS 3 Zrotation Xrotation Yrotation
          End Site
          {
            OFFSET -1.1221 -3.69964 12.103
          }
        }
      }
    }
  }
  JOINT lButtock
  {
    OFFSET 8.77824 4.35084 1.2192
    CHANNELS 3 Zrotation Xrotation Yrotation
    JOINT lThigh
    {
      OFFSET 0 -1.70687 -2.19456
      CHANNELS 3 Zrotation Xrotation Yrotation
      JOINT lShin
      {
        OFFSET 0 -36.8199 0.73152
        CHANNELS 3 Zrotation Xrotation Yrotation
        JOINT lFoot
        {
          OFFSET -0.73152 -45.1104 -5.12064
          CHANNELS 3 Zrotation Xrotation Yrotation
          End Site
          {
            OFFSET 1.1221 -3.69964 12.103
          }
        }
      }
    }
  }
}
MOTION
Frames:	7
Frame Time:	0.00833333
-22.6522 85.1932 232.518 0.0 0.0 0.0 0.572867 -0.00324253 0.0163893 0.158165 -0.00505501 0.0274051 1.09213e-14 -1.59028e-15 -5.59083e-17 3.28274e-14 3.18055e-15 -1.5996e-16 -0.0 0.0 0.0 -0.0 0.0 0.0 5.56481e-15 -3.10601e-18 2.48481e-16 1.16491e-13 1.36664e-16 5.96354e-16 1.9871e-12 -5.99336e-13 -2.22639e-14 2.27691e-11 5.69518e-13 -1.01778e-13 5.37046e-11 -7.03441e-14 -2.38542e-13 9.27374e-11 -1.24042e-13 -4.04726e-13 5.37096e-11 -6.83819e-14 -2.51264e-13 7.73091 5.47488 0.417314 5.37036e-11 -7.03698e-14 -2.3218e-13 2.90554 0.965183 0.102902 5.37076e-11 -7.04692e-14 -2.29795e-13 10.2786 0.731801 0.0259123 5.37009e-11 -6.91771e-14 -2.19458e-13 2.22167 -0.733487 -0.20892 5.36871e-15 -3.10601e-18 -2.98177e-16 1.13774e-13 3.54085e-16 -5.96354e-16 1.99162e-12 5.90788e-13 -4.13472e-14 2.27679e-11 -6.23016e-13 -4.45278e-14 5.3716e-11 -7.91949e-14 -2.22639e-13 9.27736e-11 -1.43125e-13 -3.88028e-13 5.37092e-11 -7.67309e-14 -2.00375e-13 -7.73091 5.47488 -0.417314 5.37163e-11 -7.90169e-14 -2.22639e-13 -2.90554 0.965183 -0.102902 5.37145e-11 -7.87187e-14 -2.25819e-13 -10.2786 0.731801 -0.0259123 5.37198e-11 -7.71284e-14 -2.41722e-13 -2.22167 -0.733487 0.20892 -2.03217e-16 0.0 -3.88251e-19 0.920341 -4.54484 -0.0776166 -0.00189433 2.68072 -0.00762732 -0.489783 1.8645 0.0936386 2.03217e-16 0.0 3.88251e-19 -0.0478249 -2.33548 0.0218172 0.00803225 -1.32111 0.0687538 0.481383 3.65688 -0.128874
-27.806 82.444 224.058 -109.799 -85.2783 122.246 1.44693 -4.89496 1.40766 -0.461461 -0.134769 0.328643 -8.2517 9.08229 -2.3515 18.7841 -8.68486 -3.36628 -0.0 0.0 0.0 -0.0 0.0 0.0 -4.47222e-14 -9.69756e-13 -3.47135e-15 22.8912 10.404 -0.356592 -3.56322 -1.50689 5.68073 0.10708 7.26963 0.992226 1.35641e-09 3.07452e-10 5.64977e-10 2.35532e-09 5.30282e-10 9.46387e-10 1.35642e-09 3.07454e-10 5.64965e-10 7.73091 5.47488 0.417314 1.35641e-09 3.07452e-10 5.6498e-10 2.90554 0.965183 0.102902 1.35642e-09 3.07451e-10 5.6498e-10 10.2786 0.731801 0.0259123 1.35641e-09 3.07452e-10 5.64989e-10 2.22167 -0.733487 -0.20892 -4.49081e-14 -9.69757e-13 -3.98191e-15 -21.9295 12.1152 1.74262 4.52426 -2.12008 -6.99525 -0.172777 -9.24315 1.23883 5.70852e-10 -5.81032e-13 7.93678e-10 9.67282e-10 7.4178e-12 1.38429e-09 5.70846e-10 -5.7833e-13 7.93695e-10 -7.73091 5.47488 -0.417314 5.70853e-10 -5.80965e-13 7.93681e-10 -2.90554 0.965183 -0.102902 5.7085e-10 -5.80905e-13 7.93675e-10 -10.2786 0.731801 -0.0259123 5.70856e-10 -5.78864e-13 7.93663e-10 -2.22167 -0.733487 0.20892 -2.03217e-16 0.0 -3.88251e-19 1.72908 -10.6715 -3.22649 -0.00304657 10.3532 0.0974386 0.226854 -4.12559 4.83021 2.03217e-16 0.0 3.88251e-19 1.43716 -9.80005 1.70866 -0.00136934 8.13255 -0.0719549 0.17181 -2.26933 -2.25384
-27.8046 82.4424 224.059 -109.66 -85.284 122.113 2.63328 -10.06 2.91618 -1.11492 -0.269055 0.648093 -16.1256 18.6281 -5.04024 37.4785 -17.7583 -7.18985 -0.0 0.0 0.0 -0.0 0.0 0.0 -1.01512e-13 -2.06121e-12 -7.27738e-15 47.2399 21.4047 -0.775128 -7.0067 -3.05036 11.6983 -0.0621582 14.945 2.09536 2.81456e-09 6.48203e-10 1.2004e-09 4.88787e-09 1.11795e-09 2.01094e-09 2.81456e-09 6.48204e-10 1.20039e-09 7.73091 5.47488 0.417314 2.81456e-09 6.48202e-10 1.2004e-09 2.90554 0.965183 0.102902 2.81457e-09 6.48201e-10 1.2004e-09 10.2786 0.731801 0.0259123 2.81455e-09 6.482e-10 1.2004e-09 2.22167 -0.733487 -0.20892 -1.01687e-13 -2.06121e-12 -7.7526e-15 -45.9897 24.8816 3.8645 8.74897 -4.2562 -14.4213 0.101786 -18.9932 2.65947 1.15897e-09 4.3167e-14 1.67875e-09 1.96222e-09 1.79992e-11 2.92826e-09 1.15897e-09 4.61428e-14 1.67876e-09 -7.73091 5.47488 -0.417314 1.15897e-09 4.31244e-14 1.67875e-09 -2.90554 0.965183 -0.102902 1.15897e-09 4.29189e-14 1.67875e-09 -10.2786 0.731801 -0.0259123 1.15898e-09 4.54473e-14 1.67874e-09 -2.22167 -0.733487 0.20892 -2.03217e-16 0.0 -3.88251e-19 1.81716 -17.07 -6.75219 -0.0363807 18.4644 0.216306 2.07525 -10.3337 9.98841 2.03217e-16 0.0 3.88251e-19 3.506 -17.6647 3.61529 0.0411876 18.124 -0.230584 -0.638462 -8.51127 -4.55137
-27.8117 82.4469 224.031 -108.629 -85.175 121.055 3.92744 -14.643 4.31522 -1.69662 -0.394151 0.931139 -22.292 27.0517 -7.82678 53.0249 -25.6747 -11.0897 -0.0 0.0 0.0 -0.0 0.0 0.0 -1.45296e-13 -2.90926e-12 -1.0911e-14 69.1178 31.2066 -1.23022 -9.80576 -4.34323 17.0869 -0.483107 21.7817 3.17999 3.96183e-09 9.22498e-10 1.69541e-09 6.88047e-09 1.59109e-09 2.83997e-09 3.96183e-09 9.22498e-10 1.6954e-09 7.73091 5.47488 0.417314 3.96183e-09 9.22496e-10 1.6954e-09 2.90554 0.965183 0.102902 3.96184e-09 9.22495e-10 1.6954e-09 10.2786 0.731801 0.0259123 3.96183e-09 9.22493e-10 1.69541e-09 2.22167 -0.733487 -0.20892 -1.45462e-13 -2.90927e-12 -1.13494e-14 -68.4438 36.1943 6.3382 12.0512 -5.98182 -21.0916 0.811364 -27.6741 4.14285 1.60513e-09 -1.5847e-12 2.38148e-09 2.7163e-09 2.25396e-11 4.15366e-09 1.60512e-09 -1.58153e-12 2.38149e-09 -7.73091 5.47488 -0.417314 1.60513e-09 -1.58486e-12 2.38149e-09 -2.90554 0.965183 -0.102902 1.60512e-09 -1.58528e-12 2.38148e-09 -10.2786 0.731801 -0.0259123 1.60513e-09 -1.58233e-12 2.38147e-09 -2.22167 -0.733487 0.20892 -2.03217e-16 0.0 -3.88251e-19 1.18539 -22.6517 -10.1472 -0.0978158 25.6977 0.33603 4.69064 -15.6387 14.8266 2.03217e-16 0.0 3.88251e-19 5.83967 -24.6413 5.51074 0.131695 27.0394 -0.39426 -1.79477 -14.0344 -6.69986
-27.8005 82.4437 224.036 -108.79 -85.195 121.239 4.9633 -17.805 5.32064 -2.10169 -0.496312 1.12316 -25.996 32.8528 -10.1322 63.1343 -31.0575 -14.2447 -0.0 0.0 0.0 -0.0 0.0 0.0 -1.56568e-13 -3.14882e-12 -1.41137e-14 84.4885 38.0167 -1.62695 -11.6119 -5.1785 20.8603 -0.950208 26.5472 4.02638 4.33193e-09 1.03065e-09 1.83938e-09 7.52322e-09 1.77793e-09 3.08019e-09 4.33193e-09 1.03065e-09 1.83937e-09 7.73091 5.47488 0.417314 4.33193e-09 1.03065e-09 1.83937e-09 2.90554 0.965183 0.102902 4.33194e-09 1.03065e-09 1.83937e-09 10.2786 0.731801 0.0259123 4.33192e-09 1.03065e-09 1.83937e-09 2.22167 -0.733487 -0.20892 -1.56727e-13 -3.14883e-12 -1.45113e-14 -84.9011 44.012 8.67692 14.108 -7.04187 -25.7716 1.63383 -33.7341 5.38512 1.69635e-09 -8.84275e-12 2.62836e-09 2.8682e-09 1.1978e-11 4.58263e-09 1.69635e-09 -8.83956e-12 2.62836e-09 -7.73091 5.47488 -0.417314 1.69635e-09 -8.84304e-12 2.62837e-09 -2.90554 0.965183 -0.102902 1.69635e-09 -8.84353e-12 2.62836e-09 -10.2786 0.731801 -0.0259123 1.69636e-09 -8.84035e-12 2.62835e-09 -2.22167 -0.733487 0.20892 -2.03217e-16 0.0 -3.88251e-19 0.33954 -26.4459 -12.6561 -0.161785 30.7368 0.431843 7.04682 -19.1448 18.339 2.03217e-16 0.0 3.88251e-19 7.78235 -29.4802 6.98356 0.23137 33.2652 -0.530365 -2.85058 -17.8471 -8.26936
-27.7947 82.443 224.032 -108.496 -85.1682 120.953 5.39569 -19.0018 5.6872 -2.26485 -0.566736 1.18719 -27.2679 35.1307 -11.1625 66.9438 -33.1759 -15.6185 -0.0 0.0 0.0 -0.0 0.0 0.0 -1.1484e-13 -2.45406e-12 -2.04426e-14 90.5466 40.6298 -1.80368 -12.2874 -5.48777 22.3413 -1.18074 28.45 4.39146 3.48915e-09 8.83974e-10 1.42671e-09 6.05931e-09 1.52575e-09 2.38634e-09 3.48915e-09 8.83975e-10 1.4267e-09 7.73091 5.47488 0.417314 3.48916e-09 8.83975e-10 1.42671e-09 2.90554 0.965183 0.102902 3.48916e-09 8.83974e-10 1.4267e-09 10.2786 0.731801 0.0259123 3.48915e-09 8.83971e-10 1.42671e-09 2.22167 -0.733487 -0.20892 -1.14997e-13 -2.45406e-12 -2.07881e-14 -91.5807 47.0732 9.81238 14.8618 -7.41888 -27.611 2.05626 -36.1791 5.95307 1.20863e-09 -2.66911e-11 2.16762e-09 2.03701e-09 -2.55066e-11 3.77467e-09 1.20862e-09 -2.66883e-11 2.16762e-09 -7.73091 5.47488 -0.417314 1.20863e-09 -2.66916e-11 2.16763e-09 -2.90554 0.965183 -0.102902 1.20862e-09 -2.6692e-11 2.16762e-09 -10.2786 0.731801 -0.0259123 1.20863e-09 -2.66888e-11 2.16762e-09 -2.22167 -0.733487 0.20892 -2.03217e-16 0.0 -3.88251e-19 -0.0198677 -27.9155 -13.5541 -0.192694 32.701 0.473621 8.03392 -20.4685 19.6331 2.03217e-16 0.0 3.88251e-19 8.62611 -31.3904 7.56445 0.280811 35.7289 -0.591478 -3.30667 -19.331 -8.86742
-27.788 82.4374 224.033 -108.305 -85.1514 120.777 5.33757 -18.8018 5.57222 -2.2554 -0.614485 1.15982 -27.0945 34.9425 -11.079 66.616 -33.0561 -15.4801 -0.0 0.0 0.0 -0.0 0.0 0.0 -3.5611e-14 -1.09584e-12 -2.88269e-14 89.8891 40.2472 -1.77431 -12.2138 -5.45491 22.1782 -1.16058 28.3133 4.36378 1.78599e-09 5.56331e-10 6.19555e-10 3.10098e-09 9.61806e-10 1.0305e-09 1.78599e-09 5.56334e-10 6.19548e-10 7.73091 5.47488 0.417314 1.78599e-09 5.56335e-10 6.19551e-10 2.90554 0.965183 0.102902 1.786e-09 5.56335e-10 6.19549e-10 10.2786 0.731801 0.0259123 1.78599e-09 5.56332e-10 6.19553e-10 2.22167 -0.733487 -0.20892 -3.57705e-14 -1.09584e-12 -2.91126e-14 -90.7955 46.7878 9.6859 14.7797 -7.37843 -27.4072 2.02628 -36.0563 5.92044 3.11265e-10 -5.19751e-11 1.20476e-09 5.10264e-10 -8.19466e-11 2.08901e-09 3.1126e-10 -5.19728e-11 1.20476e-09 -7.73091 5.47488 -0.417314 3.11266e-10 -5.19759e-11 1.20476e-09 -2.90554 0.965183 -0.102902 3.11259e-10 -5.19759e-11 1.20475e-09 -10.2786 0.731801 -0.0259123 3.11272e-10 -5.1973e-11 1.20475e-09 -2.22167 -0.733487 0.20892 -2.03217e-16 0.0 -3.88251e-19 0.159422 -27.7757 -13.1926 -0.189783 32.4691 0.470126 7.80707 -20.3301 19.2369 2.03217e-16 0.0 3.88251e-19 8.53647 -31.2276 7.41345 0.275757 35.5053 -0.586117 -3.22196 -19.1709 -8.72075
